<svg id="Layer_1" data-name="Layer 1" xmlns="http://www.w3.org/2000/svg" viewBox="0 0 1863 609"><defs><style>.cls-1{fill:#2c2f44;}.cls-2{fill:#ff4b57;}</style></defs><title>Artboard 4</title><path class="cls-1" d="M399.06,514.89V323.53h49.85q19.56,0,30.55,2.82A41.91,41.91,0,0,1,498,336.13a39.42,39.42,0,0,1,11.53,18.09q3.21,10.59,3.21,29.35v71.28q0,18.76-3.21,29.35A39.42,39.42,0,0,1,498,502.29a41.81,41.81,0,0,1-18.49,9.78q-11,2.82-30.55,2.82Zm39.67-31.63h12q14.48,0,18.5-7,3.75-6.15,3.75-28.4V390.53q0-22.23-3.75-28.4-4-7-18.5-7h-12Z"/><path class="cls-1" d="M534.67,452.44V386q0-17.42,2.41-28.14a49.76,49.76,0,0,1,8-18.49A39.32,39.32,0,0,1,563.48,325q11.38-4.42,29.88-4.42,19.56,0,31.49,5.22a39.39,39.39,0,0,1,18.62,16.75q8.31,14.2,8.31,43.42v66.46q0,17.43-2.41,28.14a49.76,49.76,0,0,1-8,18.49A39.36,39.36,0,0,1,623,513.41q-11.38,4.43-29.61,4.42-19.85,0-31.76-5.22A39.46,39.46,0,0,1,543,495.86Q534.66,481.66,534.67,452.44Zm39.66-3.21q.27,14.46.67,19a24.21,24.21,0,0,0,2,8q4,9.66,16.35,9.65,12.06,0,15.54-8.31,3.23-7.5,3.22-28.4v-60q0-22.23-3.75-29.48t-15-7.23q-12.33,0-15.81,8.31-3.22,7.5-3.22,28.4Z"/><path class="cls-1" d="M754.15,478.44H709.67l-7.78,36.45H659l56.28-191.36h33.24l56.28,191.36H762.19Zm-6.7-31.36-15.54-70.75-15.28,70.75Z"/><path class="cls-1" d="M811.5,514.89V323.53H848l34.57,97.82,34.31-97.82h36.71V514.89H915.76V410.1l-20.64,63.25H869.93L849.29,410.1V514.89Z"/><path class="cls-1" d="M982.22,514.89V323.53h97.55V356h-57.89v46.37h48.78v32.42h-48.78v47.71h59.5v32.43Z"/><path class="cls-1" d="M1141.67,438v76.92H1102V323.53h52.53q18.23,0,28,2.82a38.11,38.11,0,0,1,16.75,9.78q13.14,13.41,13.14,43.95,0,25.2-5.23,36.85T1187.5,435l31.9,79.87h-44L1148.91,438Zm-1.07-30.28h11.26q11.79,0,15.81-5.36,5.08-6.43,5.09-20.1,0-15.28-4.29-21.18t-15.81-5.89H1140.6Z"/><path class="cls-1" d="M1237.88,514.89V323.53h39.67V514.89Z"/><path class="cls-1" d="M1379.12,455.93h36.18q-.54,26.79-9.38,40.2-14,21.71-46.64,21.7t-46.63-20.1q-9.92-14.46-9.91-49.58V390.8q0-20.62,2.81-32.83t9.52-20q14.19-16.89,43.14-16.89,34.85,0,48,24.66,6.43,11.52,7,34H1377q-1.34-15.81-5-21.3t-12.46-5.5q-10.71,0-14.2,9.38-3,8.58-2.95,31.36v51.46q0,24.39,3.62,32.56t14.34,8.17q9.65,0,13.93-7T1379.12,455.93Z"/><path class="cls-1" d="M1514.19,478.44H1469.7l-7.78,36.45H1419l56.28-191.36h33.24l56.28,191.36h-42.61Zm-6.7-31.36-15.55-70.75-15.28,70.75Z"/><path class="cls-1" d="M1571.54,514.89V323.53h39.66l42.34,112.3V323.53h37V514.89H1653l-44.49-114.44V514.89Z"/><path class="cls-1" d="M1715.45,452.44V386q0-17.42,2.41-28.14a49.76,49.76,0,0,1,8-18.49A39.37,39.37,0,0,1,1744.26,325q11.38-4.42,29.88-4.42,19.56,0,31.49,5.22a39.46,39.46,0,0,1,18.63,16.75q8.29,14.2,8.31,43.42v66.46q0,17.43-2.41,28.14a49.62,49.62,0,0,1-8.05,18.49,39.28,39.28,0,0,1-18.35,14.34q-11.4,4.43-29.62,4.42-19.83,0-31.76-5.22a39.39,39.39,0,0,1-18.62-16.75Q1715.45,481.66,1715.45,452.44Zm39.66-3.21q.27,14.46.67,19a24.21,24.21,0,0,0,2,8q4,9.66,16.35,9.65,12.06,0,15.55-8.31,3.21-7.5,3.21-28.4v-60q0-22.23-3.75-29.48t-15-7.23q-12.33,0-15.81,8.31-3.21,7.5-3.22,28.4Z"/><path class="cls-1" d="M65,157.52H45.15V228H35.91V75H65c16.17,0,33.26,4.08,33.26,41.25C98.28,153,80.72,157.52,65,157.52Zm-.7-74.76H45.15v67H64.32c13.4,0,24.72-4.08,24.72-33.51S77.72,82.76,64.32,82.76Z"/><path class="cls-1" d="M177.52,222.18c-5.09,4.94-12.94,7.52-22,7.52s-16.86-2.58-21.95-7.52c-9.7-9.24-11.55-17.83-11.55-70.68s1.85-61.44,11.55-70.68c5.09-4.94,12.94-7.52,21.95-7.52s16.86,2.58,22,7.52c9.7,9.24,11.55,17.83,11.55,70.68S187.22,212.94,177.52,222.18ZM171.05,86.41C167.58,83,162.27,81,155.57,81s-12,1.93-15.48,5.37c-7.39,7.52-8.77,14.18-8.77,65.09s1.38,57.58,8.77,65.1c3.47,3.43,8.78,5.37,15.48,5.37s12-1.94,15.48-5.37c7.39-7.52,8.77-14.18,8.77-65.1S178.44,93.93,171.05,86.41Z"/><path class="cls-1" d="M219.09,228V75h9.24V220.25h43.89V228Z"/><path class="cls-1" d="M293.93,228V75h9.24V228Z"/><path class="cls-1" d="M361.62,82.76V228h-9.24V82.76H324.89V75h64.22v7.74Z"/><path class="cls-1" d="M410.82,228V75H464v7.74H420.06v64.88h37.88v7.73H420.06v64.88H464V228ZM442.7,63.42h-9.25L448,36.35h10.85Z"/><path class="cls-1" d="M542.72,223.25c-4.86,4.09-11.55,6.45-20.33,6.45-9,0-16.87-2.58-21.95-7.52-9.7-9.24-11.55-17.83-11.55-70.68s1.85-61.44,11.55-70.68c5.08-4.94,12.94-7.52,21.95-7.52,9.7,0,16.63,2.8,21.71,7.52,6.7,6.45,9.47,16.33,9.47,27.29h-9.24c0-8.38-1.84-17-7.39-22.13-3.23-3-8.08-4.94-14.55-4.94-6.7,0-12,1.93-15.48,5.37-7.39,7.52-8.78,14.18-8.78,65.09s1.39,57.58,8.78,65.1c3.47,3.43,8.78,5.37,15.48,5.37,6.47,0,11.32-1.94,14.55-4.95,5.55-5.15,7.39-13.74,7.39-22.12h9.24C553.57,206.5,550.34,217,542.72,223.25Z"/><path class="cls-1" d="M638.12,228,589.61,98.65V228h-9.25V75h10.17L639,204.35V75h9.24V228Z"/><path class="cls-1" d="M681.54,228V75h9.24V228Z"/><path class="cls-1" d="M774.63,223.25c-4.85,4.09-11.55,6.45-20.33,6.45-9,0-16.86-2.58-21.94-7.52-9.7-9.24-11.55-17.83-11.55-70.68s1.85-61.44,11.55-70.68c5.08-4.94,12.93-7.52,21.94-7.52,9.71,0,16.64,2.8,21.72,7.52,6.7,6.45,9.47,16.33,9.47,27.29h-9.24c0-8.38-1.85-17-7.39-22.13C765.62,83,760.77,81,754.3,81c-6.7,0-12,1.93-15.47,5.37-7.4,7.52-8.78,14.18-8.78,65.09s1.38,57.58,8.78,65.1C742.29,220,747.6,222,754.3,222c6.47,0,11.32-1.94,14.56-4.95,5.54-5.15,7.39-13.74,7.39-22.12h9.24C785.49,206.5,782.25,217,774.63,223.25Z"/><path class="cls-1" d="M862.18,222.18c-5.08,4.94-12.94,7.52-21.95,7.52s-16.86-2.58-21.94-7.52c-9.7-9.24-11.55-17.83-11.55-70.68s1.85-61.44,11.55-70.68c5.08-4.94,12.94-7.52,21.94-7.52s16.87,2.58,21.95,7.52c9.7,9.24,11.55,17.83,11.55,70.68S871.88,212.94,862.18,222.18ZM855.71,86.41C852.25,83,846.93,81,840.23,81s-12,1.93-15.47,5.37c-7.4,7.52-8.78,14.18-8.78,65.09s1.38,57.58,8.78,65.1c3.46,3.43,8.77,5.37,15.47,5.37s12-1.94,15.48-5.37c7.39-7.52,8.78-14.18,8.78-65.1S863.1,93.93,855.71,86.41Z"/><path class="cls-2" d="M35.84,258l-1,322h322l1-322Zm97,248h-42V333h42Zm75,0h-43V392l43,47Zm92,0h-38l-97-153V333h37l55,86V333h43Z"/></svg>